<svg xmlns="http://www.w3.org/2000/svg" xmlns:xlink="http://www.w3.org/1999/xlink" width="500" zoomAndPan="magnify" viewBox="0 0 375 374.999991" height="500" preserveAspectRatio="xMidYMid meet" version="1.0"><defs><g/><clipPath id="1fd17a3218"><path d="M 24.226562 93 L 188 93 L 188 375 L 24.226562 375 Z M 24.226562 93 " clip-rule="nonzero"/></clipPath><clipPath id="661688ba4d"><path d="M 186 93 L 349.726562 93 L 349.726562 375 L 186 375 Z M 186 93 " clip-rule="nonzero"/></clipPath></defs><g clip-path="url(#1fd17a3218)"><path fill="#ded1f6" d="M 186.914062 374.523438 L 187.355469 374.765625 L 186.914062 375.027344 L 25.070312 281.566406 L 24.542969 281.261719 L 24.542969 93.769531 L 25.070312 93.460938 L 186.914062 186.917969 L 187.355469 186.65625 L 187.417969 186.722656 L 186.914062 187.007812 Z M 186.914062 374.523438 " fill-opacity="1" fill-rule="nonzero"/></g><path fill="#b388ff" d="M 348.777344 93.460938 L 187.355469 186.65625 L 186.914062 186.917969 L 25.070312 93.460938 L 186.914062 0 Z M 348.777344 93.460938 " fill-opacity="1" fill-rule="nonzero"/><g clip-path="url(#661688ba4d)"><path fill="#c5acf1" d="M 349.304688 93.769531 L 349.304688 281.261719 L 348.777344 281.566406 L 187.355469 374.765625 L 186.914062 374.523438 L 186.914062 187.007812 L 187.417969 186.722656 L 348.867188 93.503906 Z M 349.304688 93.769531 " fill-opacity="1" fill-rule="nonzero"/></g><g fill="#000000" fill-opacity="1"><g transform="translate(80.922722, 307.895688)"><g><path d="M 132.671875 0 L 79.390625 0 L 3.96875 -223.210938 L 50.839844 -223.210938 L 105.039062 -56.792969 L 108.855469 -56.792969 L 162.292969 -223.210938 L 207.941406 -223.210938 Z M 132.671875 0 "/></g></g></g></svg>