<svg xmlns="http://www.w3.org/2000/svg" xmlns:xlink="http://www.w3.org/1999/xlink" width="500" zoomAndPan="magnify" viewBox="0 0 375 374.999991" height="500" preserveAspectRatio="xMidYMid meet" version="1.0"><defs><g/><clipPath id="909f153caf"><path d="M 39.453125 101 L 188 101 L 188 358.09375 L 39.453125 358.09375 Z M 39.453125 101 " clip-rule="nonzero"/></clipPath><clipPath id="1c7e8deb39"><path d="M 40 16.84375 L 335 16.84375 L 335 187 L 40 187 Z M 40 16.84375 " clip-rule="nonzero"/></clipPath><clipPath id="8fdf00b81e"><path d="M 187 101 L 335.703125 101 L 335.703125 358 L 187 358 Z M 187 101 " clip-rule="nonzero"/></clipPath></defs><rect x="-37.5" width="450" fill="#ffffff" y="-37.499999" height="449.999989" fill-opacity="1"/><rect x="-37.5" width="450" fill="#ffffff" y="-37.499999" height="449.999989" fill-opacity="1"/><g clip-path="url(#909f153caf)"><path fill="#ded1f6" d="M 187.5 357.65625 L 187.898438 357.878906 L 187.5 358.117188 L 40.222656 273.070312 L 39.742188 272.789062 L 39.742188 102.171875 L 40.222656 101.890625 L 187.5 186.9375 L 187.898438 186.699219 L 187.960938 186.757812 L 187.5 187.019531 Z M 187.5 357.65625 " fill-opacity="1" fill-rule="nonzero"/></g><g clip-path="url(#1c7e8deb39)"><path fill="#b388ff" d="M 334.796875 101.890625 L 187.898438 186.699219 L 187.5 186.9375 L 40.222656 101.890625 L 187.5 16.84375 Z M 334.796875 101.890625 " fill-opacity="1" fill-rule="nonzero"/></g><g clip-path="url(#8fdf00b81e)"><path fill="#c5acf1" d="M 335.277344 102.171875 L 335.277344 272.789062 L 334.796875 273.070312 L 187.898438 357.878906 L 187.5 357.65625 L 187.5 187.019531 L 187.960938 186.757812 L 334.875 101.929688 Z M 335.277344 102.171875 " fill-opacity="1" fill-rule="nonzero"/></g><g fill="#ffffff" fill-opacity="1"><g transform="translate(145.28664, 149.406789)"><g><path d="M 52.855469 0 L 31.628906 0 L 1.582031 -88.925781 L 20.253906 -88.925781 L 41.847656 -22.625 L 43.367188 -22.625 L 64.65625 -88.925781 L 82.84375 -88.925781 Z M 52.855469 0 "/></g></g></g><g fill="#ffffff" fill-opacity="1"><g transform="translate(69.766136, 273.47764)"><g><path d="M 36.25 1.277344 C 26.722656 1.277344 19.160156 -0.738281 13.5625 -4.773438 C 7.96875 -8.808594 4.417969 -14.515625 2.917969 -21.898438 L 16.238281 -28.101562 L 17.640625 -27.855469 C 19.140625 -22.949219 21.277344 -19.371094 24.054688 -17.121094 C 26.832031 -14.871094 30.695312 -13.746094 35.644531 -13.746094 C 40.425781 -13.746094 44.078125 -14.859375 46.589844 -17.089844 C 49.105469 -19.320312 50.363281 -22.566406 50.363281 -26.824219 C 50.363281 -31 49.113281 -34.203125 46.621094 -36.433594 C 44.128906 -38.664062 40.46875 -39.777344 35.644531 -39.777344 L 22.261719 -39.777344 L 22.261719 -53.464844 L 33.941406 -53.464844 C 37.914062 -53.464844 41.078125 -54.457031 43.429688 -56.445312 C 45.78125 -58.429688 46.957031 -61.269531 46.957031 -64.960938 C 46.957031 -68.609375 45.851562 -71.355469 43.640625 -73.203125 C 41.429688 -75.046875 38.378906 -75.96875 34.488281 -75.96875 C 30.511719 -75.96875 26.996094 -75.035156 23.933594 -73.171875 C 20.871094 -71.304688 18.410156 -68.792969 16.542969 -65.628906 L 15.144531 -65.386719 L 5.898438 -76.152344 C 9.023438 -80.367188 13.035156 -83.765625 17.941406 -86.339844 C 22.847656 -88.914062 28.6875 -90.203125 35.460938 -90.203125 C 44.785156 -90.203125 51.902344 -88.253906 56.808594 -84.363281 C 61.714844 -80.46875 64.167969 -74.996094 64.167969 -67.941406 C 64.167969 -63.683594 63.175781 -60.042969 61.1875 -57.023438 C 59.203125 -54 56.34375 -51.394531 52.613281 -49.207031 L 52.613281 -47.929688 C 62.871094 -44.320312 68 -37.019531 68 -26.03125 C 68 -20.519531 66.824219 -15.710938 64.472656 -11.617188 C 62.121094 -7.523438 58.574219 -4.347656 53.828125 -2.097656 C 49.085938 0.152344 43.226562 1.277344 36.25 1.277344 Z M 36.25 1.277344 "/></g></g></g><g fill="#ffffff" fill-opacity="1"><g transform="translate(217.458902, 277.97764)"><g><path d="M 43.550781 -88.925781 C 57.984375 -88.925781 69.003906 -85.195312 76.609375 -77.734375 C 84.210938 -70.273438 88.011719 -59.179688 88.011719 -44.460938 C 88.011719 -29.785156 84.210938 -18.703125 76.609375 -11.222656 C 69.003906 -3.742188 57.984375 0 43.550781 0 L 11.554688 0 L 11.554688 -88.925781 Z M 42.515625 -14.78125 C 51.679688 -14.78125 58.53125 -17.121094 63.074219 -21.804688 C 67.617188 -26.488281 69.886719 -34.042969 69.886719 -44.460938 C 69.886719 -54.882812 67.617188 -62.4375 63.074219 -67.117188 C 58.53125 -71.800781 51.679688 -74.144531 42.515625 -74.144531 L 29.132812 -74.144531 L 29.132812 -14.78125 Z M 42.515625 -14.78125 "/></g></g></g></svg>